<svg width="64" height="64" viewBox="0 0 64 64" fill="none" xmlns="http://www.w3.org/2000/svg">
<g clip-path="url(#clip0_122_19997)">
<rect width="64" height="64" rx="10" fill="#E2ECFF"/>
<path d="M42.3125 21.9219H21.6875C21.2524 21.9219 20.8351 22.0947 20.5274 22.4024C20.2197 22.7101 20.0469 23.1274 20.0469 23.5625V40.4375C20.0469 40.8726 20.2197 41.2899 20.5274 41.5976C20.8351 41.9053 21.2524 42.0781 21.6875 42.0781H42.3125C42.7476 42.0781 43.1649 41.9053 43.4726 41.5976C43.7803 41.2899 43.9531 40.8726 43.9531 40.4375V23.5625C43.9531 23.1274 43.7803 22.7101 43.4726 22.4024C43.1649 22.0947 42.7476 21.9219 42.3125 21.9219ZM21.6875 23.3281H42.3125C42.3747 23.3281 42.4343 23.3528 42.4782 23.3968C42.5222 23.4407 42.5469 23.5003 42.5469 23.5625V36.1684L39.0934 32.7148C38.941 32.5625 38.7601 32.4416 38.5611 32.3592C38.362 32.2767 38.1487 32.2343 37.9332 32.2343C37.7177 32.2343 37.5044 32.2767 37.3053 32.3592C37.1063 32.4416 36.9254 32.5625 36.773 32.7148L34.2629 35.225L28.9414 29.9023C28.7891 29.75 28.6082 29.6291 28.4091 29.5467C28.2101 29.4642 27.9967 29.4218 27.7812 29.4218C27.5658 29.4218 27.3524 29.4642 27.1534 29.5467C26.9543 29.6291 26.7734 29.75 26.6211 29.9023L21.4531 35.0703V23.5625C21.4531 23.5003 21.4778 23.4407 21.5218 23.3968C21.5657 23.3528 21.6253 23.3281 21.6875 23.3281ZM21.4531 40.4375V37.059L27.6148 30.8973C27.6366 30.8753 27.6626 30.8579 27.6911 30.846C27.7197 30.8341 27.7503 30.8279 27.7812 30.8279C27.8122 30.8279 27.8428 30.8341 27.8714 30.846C27.8999 30.8579 27.9259 30.8753 27.9477 30.8973L37.7223 40.6719H21.6875C21.6253 40.6719 21.5657 40.6472 21.5218 40.6032C21.4778 40.5593 21.4531 40.4997 21.4531 40.4375ZM42.3125 40.6719H39.7109L35.2578 36.2188L37.7668 33.7086C37.7886 33.6868 37.8144 33.6695 37.8429 33.6577C37.8713 33.6459 37.9018 33.6399 37.9326 33.6399C37.9634 33.6399 37.9939 33.6459 38.0224 33.6577C38.0508 33.6695 38.0767 33.6868 38.0984 33.7086L42.5516 38.1617V40.4375C42.5516 40.4687 42.5454 40.4995 42.5333 40.5283C42.5212 40.557 42.5035 40.5831 42.4813 40.6049C42.459 40.6267 42.4326 40.6439 42.4036 40.6554C42.3747 40.6669 42.3437 40.6725 42.3125 40.6719ZM34.1094 28.7188C34.1094 28.487 34.1781 28.2604 34.3069 28.0677C34.4356 27.875 34.6187 27.7248 34.8328 27.6361C35.0469 27.5474 35.2825 27.5242 35.5099 27.5694C35.7372 27.6146 35.946 27.7262 36.1099 27.8901C36.2738 28.054 36.3854 28.2628 36.4306 28.4901C36.4758 28.7174 36.4526 28.9531 36.3639 29.1672C36.2752 29.3813 36.125 29.5644 35.9323 29.6931C35.7396 29.8219 35.513 29.8906 35.2812 29.8906C34.9704 29.8906 34.6724 29.7672 34.4526 29.5474C34.2328 29.3276 34.1094 29.0296 34.1094 28.7188Z" fill="#697C89"/>
</g>
<defs>
<clipPath id="clip0_122_19997">
<rect width="64" height="64" rx="10" fill="white"/>
</clipPath>
</defs>
</svg>
