<svg width="137" height="23" viewBox="0 0 137 23" fill="none" xmlns="http://www.w3.org/2000/svg">
<path d="M10.4545 0C9.35139 1.58314 10.447 5.76875 10.6868 7.66667L11.6161 7.43434C11.3577 5.38927 11.5997 1.67624 10.4545 0Z" fill="#FF7000"/>
<path d="M13.4748 0.232422L11.8485 7.43444L12.7778 7.66677L14.1717 0.464745L13.4748 0.232422Z" fill="#FF7000"/>
<path d="M6.73743 1.16152L9.29299 7.8989L4.87884 2.55546L3.94955 2.78778L8.36369 8.82819L2.09097 4.87869L1.85864 5.80799L8.13137 9.75748L9.29299 7.8989L10.4546 7.66657L7.66672 0.929199L6.73743 1.16152Z" fill="#FF7000"/>
<path d="M16.495 1.16162L13.0101 7.89899C14.6309 8.14428 17.5934 2.41568 16.495 1.16162Z" fill="#FF7000"/>
<path d="M14.1718 8.82813C16.2617 8.38753 18.7828 5.18398 19.9798 3.4847C18.0304 3.32137 14.6725 7.04403 14.1718 8.82813Z" fill="#FF7000"/>
<path d="M0.696923 7.89893L0.4646 8.5959C2.42945 9.62711 5.44754 10.5854 7.66662 10.6868C7.06518 8.95723 2.38006 8.24727 0.696923 7.89893Z" fill="#FF7000"/>
<path d="M0 11.1516V12.0809H7.43434V11.1516H0Z" fill="#FF7000"/>
<path d="M15.5657 12.0809L23 11.8485V11.3839C21.525 10.9479 16.1205 10.4093 15.5657 12.0809Z" fill="#FF7000"/>
<path d="M15.3334 12.5457C15.9364 14.2785 20.622 14.9856 22.3031 15.3335L22.5354 15.1012V14.6366C20.5579 13.5987 17.5666 12.643 15.3334 12.5457Z" fill="#FF7000"/>
<path d="M15.1011 13.4749L14.6365 14.4041L20.9092 18.3536L21.1415 17.4243L15.1011 13.4749Z" fill="#FF7000"/>
<path d="M3.25256 19.7475L3.48489 19.9798L9.06064 15.101C7.56367 13.7254 3.87651 18.4095 3.25256 19.7475Z" fill="#FF7000"/>
<path d="M15.3334 22.3031H16.2627L13.7072 15.101H13.9395C14.8923 16.9475 16.9246 19.7752 18.8183 20.6768L19.0506 20.4445C18.2992 18.7585 16.4896 16.3427 15.0339 15.1849C14.4132 14.6913 13.2379 14.8027 12.9424 15.6564C12.4179 17.1723 14.9044 20.7351 15.3334 22.3031Z" fill="#FF7000"/>
<path d="M9.0606 15.1011C8.41135 16.6605 5.23375 20.6991 6.50504 22.0708L9.98989 15.3334L9.0606 15.1011Z" fill="#FF7000"/>
<path d="M10.2223 15.5657L9.06067 23C11.1948 22.3758 10.0118 17.4403 11.6162 16.0303C11.6162 17.5172 11.401 22.5293 13.0102 23C13.0092 21.5046 13.3123 17.1189 12.3067 15.9903C11.8991 15.5329 10.7878 15.6271 10.2223 15.5657Z" fill="#FF7000"/>
<path d="M26.8987 18V16.2483H28.6139V6.97901H26.8987V5.22733H32.0078C33.7108 5.22733 35.0124 5.65917 35.9126 6.52284C36.8249 7.38652 37.2811 8.68811 37.2811 10.4276V12.8179C37.2811 14.5575 36.8249 15.8591 35.9126 16.7227C35.0124 17.5742 33.7108 18 32.0078 18H26.8987ZM30.6028 16.2118H32.026C33.133 16.2118 33.9541 15.932 34.4893 15.3725C35.0246 14.8129 35.2922 13.9796 35.2922 12.8727V10.3546C35.2922 9.23551 35.0246 8.40225 34.4893 7.85485C33.9541 7.30745 33.133 7.03375 32.026 7.03375H30.6028V16.2118ZM43.6864 18.2555C42.774 18.2555 41.9773 18.0669 41.2961 17.6898C40.6149 17.3005 40.0796 16.7592 39.6904 16.0659C39.3133 15.3603 39.1247 14.5453 39.1247 13.6208V13.4018C39.1247 12.4652 39.3133 11.6502 39.6904 10.9568C40.0675 10.2512 40.5905 9.70993 41.2596 9.33283C41.9408 8.94357 42.7254 8.74894 43.6134 8.74894C44.4771 8.74894 45.2313 8.94357 45.876 9.33283C46.5329 9.70993 47.0438 10.2391 47.4087 10.9203C47.7736 11.6015 47.9561 12.3983 47.9561 13.3106V14.0222H41.0406C41.0649 14.8129 41.3265 15.4455 41.8252 15.9199C42.3361 16.3821 42.9687 16.6133 43.7229 16.6133C44.4284 16.6133 44.9576 16.4551 45.3103 16.1388C45.6753 15.8226 45.9551 15.4576 46.1497 15.044L47.7006 15.8469C47.5303 16.1875 47.281 16.5463 46.9525 16.9234C46.6363 17.3005 46.2166 17.6168 45.6935 17.8723C45.1704 18.1277 44.5014 18.2555 43.6864 18.2555ZM41.0589 12.5807H46.0402C45.9915 11.8995 45.7483 11.3704 45.3103 10.9933C44.8724 10.604 44.3007 10.4094 43.5951 10.4094C42.8896 10.4094 42.3118 10.604 41.8617 10.9933C41.4238 11.3704 41.1562 11.8995 41.0589 12.5807ZM51.9778 18L48.9488 9.00439H50.9377L53.328 16.6133H53.62L56.0103 9.00439H57.9992L54.9702 18H51.9778Z" fill="#191F23"/>
<path d="M64.6035 18.2555C62.9978 18.2555 61.7205 17.8175 60.7717 16.9417C59.8229 16.0537 59.3484 14.7886 59.3484 13.1464V10.0809C59.3484 8.43874 59.8229 7.17972 60.7717 6.30388C61.7205 5.41588 62.9978 4.97188 64.6035 4.97188C66.2092 4.97188 67.4865 5.41588 68.4353 6.30388C69.3841 7.17972 69.8585 8.43874 69.8585 10.0809V13.1464C69.8585 14.7886 69.3841 16.0537 68.4353 16.9417C67.4865 17.8175 66.2092 18.2555 64.6035 18.2555ZM64.6035 16.1023C65.5037 16.1023 66.2031 15.8408 66.7019 15.3177C67.2006 14.7947 67.45 14.0952 67.45 13.2194V10.008C67.45 9.13212 67.2006 8.43266 66.7019 7.90959C66.2031 7.38652 65.5037 7.12498 64.6035 7.12498C63.7155 7.12498 63.016 7.38652 62.5051 7.90959C62.0064 8.43266 61.757 9.13212 61.757 10.008V13.2194C61.757 14.0952 62.0064 14.7947 62.5051 15.3177C63.016 15.8408 63.7155 16.1023 64.6035 16.1023ZM73.9418 18L71.0588 8.94965H73.5039L75.6022 16.3213H75.9307L78.029 8.94965H80.4741L77.5911 18H73.9418ZM85.8971 18.2555C84.9969 18.2555 84.2001 18.0669 83.5067 17.6898C82.8255 17.3005 82.2903 16.7592 81.901 16.0659C81.5239 15.3603 81.3354 14.5331 81.3354 13.5843V13.3653C81.3354 12.4165 81.5239 11.5954 81.901 10.902C82.2781 10.1965 82.8073 9.65519 83.4885 9.27809C84.1697 8.88883 84.9604 8.6942 85.8606 8.6942C86.7486 8.6942 87.521 8.89491 88.1779 9.29634C88.8348 9.6856 89.3457 10.233 89.7106 10.9385C90.0756 11.6319 90.258 12.4408 90.258 13.3653V14.15H83.671C83.6953 14.7703 83.9264 15.2752 84.3643 15.6644C84.8023 16.0537 85.3375 16.2483 85.97 16.2483C86.6148 16.2483 87.0892 16.1084 87.3933 15.8286C87.6974 15.5489 87.9285 15.2387 88.0867 14.8981L89.9661 15.8834C89.7958 16.1997 89.5464 16.5463 89.218 16.9234C88.9017 17.2884 88.4759 17.6047 87.9407 17.8723C87.4055 18.1277 86.7242 18.2555 85.8971 18.2555ZM83.6892 12.4348H87.9224C87.8738 11.9117 87.6609 11.492 87.2838 11.1757C86.9189 10.8595 86.4384 10.7013 85.8423 10.7013C85.2219 10.7013 84.7293 10.8595 84.3643 11.1757C83.9994 11.492 83.7744 11.9117 83.6892 12.4348ZM92.3044 18V8.94965H94.5669V9.97146H94.8954C95.0292 9.60653 95.2481 9.33891 95.5523 9.16861C95.8685 8.99831 96.2335 8.91316 96.6471 8.91316H97.7419V10.9568H96.6106C96.0267 10.9568 95.5462 11.1149 95.1691 11.4312C94.792 11.7353 94.6034 12.2097 94.6034 12.8544V18H92.3044ZM101.035 18V10.8473H98.736V8.94965H101.035V7.27096C101.035 6.65057 101.218 6.15791 101.582 5.79298C101.96 5.41588 102.446 5.22733 103.042 5.22733H105.414V7.12498H103.845C103.504 7.12498 103.334 7.30745 103.334 7.67238V8.94965H105.706V10.8473H103.334V18H101.035ZM106.984 18V5.22733H109.283V18H106.984ZM116.14 18.2555C115.24 18.2555 114.431 18.073 113.713 17.7081C112.996 17.3431 112.43 16.814 112.016 16.1206C111.603 15.4272 111.396 14.594 111.396 13.6208V13.3289C111.396 12.3557 111.603 11.5224 112.016 10.8291C112.43 10.1357 112.996 9.60653 113.713 9.2416C114.431 8.87666 115.24 8.6942 116.14 8.6942C117.04 8.6942 117.849 8.87666 118.567 9.2416C119.285 9.60653 119.85 10.1357 120.264 10.8291C120.678 11.5224 120.884 12.3557 120.884 13.3289V13.6208C120.884 14.594 120.678 15.4272 120.264 16.1206C119.85 16.814 119.285 17.3431 118.567 17.7081C117.849 18.073 117.04 18.2555 116.14 18.2555ZM116.14 16.2118C116.846 16.2118 117.43 15.9868 117.892 15.5367C118.354 15.0745 118.585 14.4176 118.585 13.5661V13.3836C118.585 12.5321 118.354 11.8813 117.892 11.4312C117.442 10.9689 116.858 10.7378 116.14 10.7378C115.435 10.7378 114.851 10.9689 114.389 11.4312C113.926 11.8813 113.695 12.5321 113.695 13.3836V13.5661C113.695 14.4176 113.926 15.0745 114.389 15.5367C114.851 15.9868 115.435 16.2118 116.14 16.2118ZM123.701 18L122.423 8.94965H124.704L125.507 16.449H125.836L127.003 8.94965H130.689L131.857 16.449H132.185L132.988 8.94965H135.269L133.992 18H130.178L129.011 10.5006H128.682L127.514 18H123.701Z" fill="#FF7000"/>
</svg>
