<svg width="137" height="23" viewBox="0 0 137 23" fill="none" xmlns="http://www.w3.org/2000/svg">
<path d="M10.4544 0C9.35127 1.58314 10.4469 5.76875 10.6867 7.66667L11.616 7.43434C11.3575 5.38927 11.5995 1.67624 10.4544 0Z" fill="#FF7000"/>
<path d="M13.4749 0.232422L11.8486 7.43444L12.7779 7.66677L14.1719 0.464745L13.4749 0.232422Z" fill="#FF7000"/>
<path d="M6.73719 1.16152L9.29274 7.8989L4.8786 2.55546L3.94931 2.78778L8.36345 8.82819L2.09072 4.87869L1.8584 5.80799L8.13113 9.75748L9.29274 7.8989L10.4544 7.66657L7.66648 0.929199L6.73719 1.16152Z" fill="#FF7000"/>
<path d="M16.4946 1.16162L13.0098 7.89899C14.6305 8.14428 17.593 2.41568 16.4946 1.16162Z" fill="#FF7000"/>
<path d="M14.1719 8.82813C16.2618 8.38753 18.783 5.18398 19.98 3.4847C18.0305 3.32137 14.6726 7.04403 14.1719 8.82813Z" fill="#FF7000"/>
<path d="M0.697167 7.89893L0.464844 8.5959C2.42969 9.62711 5.44778 10.5854 7.66686 10.6868C7.06542 8.95723 2.3803 8.24727 0.697167 7.89893Z" fill="#FF7000"/>
<path d="M0 11.1514V12.0807H7.43434V11.1514H0Z" fill="#FF7000"/>
<path d="M15.5664 12.0809L23.0007 11.8485V11.3839C21.5257 10.9479 16.1212 10.4093 15.5664 12.0809Z" fill="#FF7000"/>
<path d="M15.334 12.5454C15.937 14.2783 20.6226 14.9854 22.3037 15.3333L22.536 15.101V14.6363C20.5585 13.5984 17.5672 12.6428 15.334 12.5454Z" fill="#FF7000"/>
<path d="M15.1014 13.4746L14.6367 14.4039L20.9094 18.3534L21.1418 17.4241L15.1014 13.4746Z" fill="#FF7000"/>
<path d="M3.25293 19.7477L3.48525 19.98L9.06101 15.1013C7.56404 13.7257 3.87688 18.4098 3.25293 19.7477Z" fill="#FF7000"/>
<path d="M15.3334 22.3031H16.2627L13.7072 15.101H13.9395C14.8923 16.9475 16.9246 19.7752 18.8183 20.6768L19.0506 20.4445C18.2992 18.7585 16.4896 16.3427 15.0339 15.1849C14.4132 14.6913 13.2379 14.8027 12.9424 15.6564C12.4179 17.1723 14.9044 20.7351 15.3334 22.3031Z" fill="#FF7000"/>
<path d="M9.06084 15.1011C8.41159 16.6605 5.23399 20.6991 6.50529 22.0708L9.99014 15.3334L9.06084 15.1011Z" fill="#FF7000"/>
<path d="M10.2222 15.5659L9.06055 23.0003C11.1946 22.376 10.0117 17.4405 11.6161 16.0306C11.6161 17.5174 11.4009 22.5296 13.01 23.0003C13.009 21.5048 13.3122 17.1191 12.3066 15.9906C11.899 15.5332 10.7877 15.6273 10.2222 15.5659Z" fill="#FF7000"/>
<path d="M26.8986 18V16.2483H28.6138V6.97901H26.8986V5.22733H32.0077C33.7107 5.22733 35.0123 5.65917 35.9125 6.52284C36.8248 7.38652 37.281 8.68811 37.281 10.4276V12.8179C37.281 14.5575 36.8248 15.8591 35.9125 16.7227C35.0123 17.5742 33.7107 18 32.0077 18H26.8986ZM30.6027 16.2118H32.0259C33.1329 16.2118 33.954 15.932 34.4892 15.3725C35.0245 14.8129 35.2921 13.9796 35.2921 12.8727V10.3546C35.2921 9.23551 35.0245 8.40225 34.4892 7.85485C33.954 7.30745 33.1329 7.03375 32.0259 7.03375H30.6027V16.2118ZM43.6863 18.2555C42.7739 18.2555 41.9772 18.0669 41.2959 17.6898C40.6147 17.3005 40.0795 16.7592 39.6902 16.0659C39.3131 15.3603 39.1246 14.5453 39.1246 13.6208V13.4018C39.1246 12.4652 39.3131 11.6502 39.6902 10.9568C40.0673 10.2512 40.5904 9.70993 41.2595 9.33283C41.9407 8.94357 42.7253 8.74894 43.6133 8.74894C44.4769 8.74894 45.2311 8.94357 45.8759 9.33283C46.5327 9.70993 47.0436 10.2391 47.4086 10.9203C47.7735 11.6015 47.956 12.3983 47.956 13.3106V14.0222H41.0405C41.0648 14.8129 41.3264 15.4455 41.8251 15.9199C42.336 16.3821 42.9686 16.6133 43.7228 16.6133C44.4283 16.6133 44.9574 16.4551 45.3102 16.1388C45.6751 15.8226 45.9549 15.4576 46.1496 15.044L47.7005 15.8469C47.5302 16.1875 47.2809 16.5463 46.9524 16.9234C46.6361 17.3005 46.2165 17.6168 45.6934 17.8723C45.1703 18.1277 44.5013 18.2555 43.6863 18.2555ZM41.0587 12.5807H46.0401C45.9914 11.8995 45.7481 11.3704 45.3102 10.9933C44.8723 10.604 44.3006 10.4094 43.595 10.4094C42.8895 10.4094 42.3117 10.604 41.8616 10.9933C41.4237 11.3704 41.1561 11.8995 41.0587 12.5807ZM51.9777 18L48.9487 9.00439H50.9376L53.3279 16.6133H53.6199L56.0102 9.00439H57.9991L54.9701 18H51.9777Z" fill="white"/>
<path d="M64.6034 18.2555C62.9977 18.2555 61.7204 17.8175 60.7716 16.9417C59.8227 16.0537 59.3483 14.7886 59.3483 13.1464V10.0809C59.3483 8.43874 59.8227 7.17972 60.7716 6.30388C61.7204 5.41588 62.9977 4.97188 64.6034 4.97188C66.2091 4.97188 67.4863 5.41588 68.4352 6.30388C69.384 7.17972 69.8584 8.43874 69.8584 10.0809V13.1464C69.8584 14.7886 69.384 16.0537 68.4352 16.9417C67.4863 17.8175 66.2091 18.2555 64.6034 18.2555ZM64.6034 16.1023C65.5035 16.1023 66.203 15.8408 66.7017 15.3177C67.2005 14.7947 67.4498 14.0952 67.4498 13.2194V10.008C67.4498 9.13212 67.2005 8.43266 66.7017 7.90959C66.203 7.38652 65.5035 7.12498 64.6034 7.12498C63.7154 7.12498 63.0159 7.38652 62.505 7.90959C62.0063 8.43266 61.7569 9.13212 61.7569 10.008V13.2194C61.7569 14.0952 62.0063 14.7947 62.505 15.3177C63.0159 15.8408 63.7154 16.1023 64.6034 16.1023ZM73.9417 18L71.0587 8.94965H73.5037L75.6021 16.3213H75.9306L78.0289 8.94965H80.474L77.591 18H73.9417ZM85.8969 18.2555C84.9968 18.2555 84.2 18.0669 83.5066 17.6898C82.8254 17.3005 82.2902 16.7592 81.9009 16.0659C81.5238 15.3603 81.3353 14.5331 81.3353 13.5843V13.3653C81.3353 12.4165 81.5238 11.5954 81.9009 10.902C82.278 10.1965 82.8072 9.65519 83.4884 9.27809C84.1696 8.88883 84.9603 8.6942 85.8604 8.6942C86.7485 8.6942 87.5209 8.89491 88.1778 9.29634C88.8347 9.6856 89.3456 10.233 89.7105 10.9385C90.0754 11.6319 90.2579 12.4408 90.2579 13.3653V14.15H83.6708C83.6952 14.7703 83.9263 15.2752 84.3642 15.6644C84.8021 16.0537 85.3374 16.2483 85.9699 16.2483C86.6146 16.2483 87.0891 16.1084 87.3932 15.8286C87.6973 15.5489 87.9284 15.2387 88.0865 14.8981L89.9659 15.8834C89.7956 16.1997 89.5463 16.5463 89.2178 16.9234C88.9016 17.2884 88.4758 17.6047 87.9406 17.8723C87.4053 18.1277 86.7241 18.2555 85.8969 18.2555ZM83.6891 12.4348H87.9223C87.8737 11.9117 87.6608 11.492 87.2837 11.1757C86.9188 10.8595 86.4383 10.7013 85.8422 10.7013C85.2218 10.7013 84.7292 10.8595 84.3642 11.1757C83.9993 11.492 83.7742 11.9117 83.6891 12.4348ZM92.3042 18V8.94965H94.5668V9.97146H94.8953C95.0291 9.60653 95.248 9.33891 95.5521 9.16861C95.8684 8.99831 96.2333 8.91316 96.6469 8.91316H97.7417V10.9568H96.6104C96.0266 10.9568 95.5461 11.1149 95.169 11.4312C94.7919 11.7353 94.6033 12.2097 94.6033 12.8544V18H92.3042ZM101.035 18V10.8473H98.7359V8.94965H101.035V7.27096C101.035 6.65057 101.217 6.15791 101.582 5.79298C101.959 5.41588 102.446 5.22733 103.042 5.22733H105.414V7.12498H103.845C103.504 7.12498 103.334 7.30745 103.334 7.67238V8.94965H105.706V10.8473H103.334V18H101.035ZM106.983 18V5.22733H109.282V18H106.983ZM116.14 18.2555C115.24 18.2555 114.431 18.073 113.713 17.7081C112.996 17.3431 112.43 16.814 112.016 16.1206C111.603 15.4272 111.396 14.594 111.396 13.6208V13.3289C111.396 12.3557 111.603 11.5224 112.016 10.8291C112.43 10.1357 112.996 9.60653 113.713 9.2416C114.431 8.87666 115.24 8.6942 116.14 8.6942C117.04 8.6942 117.849 8.87666 118.567 9.2416C119.285 9.60653 119.85 10.1357 120.264 10.8291C120.677 11.5224 120.884 12.3557 120.884 13.3289V13.6208C120.884 14.594 120.677 15.4272 120.264 16.1206C119.85 16.814 119.285 17.3431 118.567 17.7081C117.849 18.073 117.04 18.2555 116.14 18.2555ZM116.14 16.2118C116.846 16.2118 117.43 15.9868 117.892 15.5367C118.354 15.0745 118.585 14.4176 118.585 13.5661V13.3836C118.585 12.5321 118.354 11.8813 117.892 11.4312C117.442 10.9689 116.858 10.7378 116.14 10.7378C115.435 10.7378 114.851 10.9689 114.388 11.4312C113.926 11.8813 113.695 12.5321 113.695 13.3836V13.5661C113.695 14.4176 113.926 15.0745 114.388 15.5367C114.851 15.9868 115.435 16.2118 116.14 16.2118ZM123.701 18L122.423 8.94965H124.704L125.507 16.449H125.835L127.003 8.94965H130.689L131.857 16.449H132.185L132.988 8.94965H135.269L133.992 18H130.178L129.01 10.5006H128.682L127.514 18H123.701Z" fill="#FF7000"/>
</svg>
