<svg width="23" height="23" viewBox="0 0 23 23" fill="none" xmlns="http://www.w3.org/2000/svg">
<path d="M10.4545 0C9.35139 1.58314 10.447 5.76875 10.6868 7.66667L11.6161 7.43434C11.3577 5.38927 11.5997 1.67624 10.4545 0Z" fill="#FF7000"/>
<path d="M13.4748 0.232422L11.8485 7.43444L12.7778 7.66677L14.1717 0.464745L13.4748 0.232422Z" fill="#FF7000"/>
<path d="M6.73743 1.16152L9.29299 7.8989L4.87884 2.55546L3.94955 2.78778L8.36369 8.82819L2.09097 4.87869L1.85864 5.80799L8.13137 9.75748L9.29299 7.8989L10.4546 7.66657L7.66672 0.929199L6.73743 1.16152Z" fill="#FF7000"/>
<path d="M16.495 1.16162L13.0101 7.89899C14.6309 8.14428 17.5934 2.41568 16.495 1.16162Z" fill="#FF7000"/>
<path d="M14.1718 8.82813C16.2617 8.38753 18.7828 5.18398 19.9798 3.4847C18.0304 3.32137 14.6725 7.04403 14.1718 8.82813Z" fill="#FF7000"/>
<path d="M0.696923 7.89893L0.4646 8.5959C2.42945 9.62711 5.44754 10.5854 7.66662 10.6868C7.06518 8.95723 2.38006 8.24727 0.696923 7.89893Z" fill="#FF7000"/>
<path d="M0 11.1516V12.0809H7.43434V11.1516H0Z" fill="#FF7000"/>
<path d="M15.5657 12.0809L23 11.8485V11.3839C21.525 10.9479 16.1205 10.4093 15.5657 12.0809Z" fill="#FF7000"/>
<path d="M15.3334 12.5457C15.9364 14.2785 20.622 14.9856 22.3031 15.3335L22.5354 15.1012V14.6366C20.5579 13.5987 17.5666 12.643 15.3334 12.5457Z" fill="#FF7000"/>
<path d="M15.1011 13.4749L14.6365 14.4041L20.9092 18.3536L21.1415 17.4243L15.1011 13.4749Z" fill="#FF7000"/>
<path d="M3.25256 19.7475L3.48489 19.9798L9.06064 15.101C7.56367 13.7254 3.87651 18.4095 3.25256 19.7475Z" fill="#FF7000"/>
<path d="M15.3334 22.3031H16.2627L13.7072 15.101H13.9395C14.8923 16.9475 16.9246 19.7752 18.8183 20.6768L19.0506 20.4445C18.2992 18.7585 16.4896 16.3427 15.0339 15.1849C14.4132 14.6913 13.2379 14.8027 12.9424 15.6564C12.4179 17.1723 14.9044 20.7351 15.3334 22.3031Z" fill="#FF7000"/>
<path d="M9.0606 15.1011C8.41135 16.6605 5.23375 20.6991 6.50504 22.0708L9.98989 15.3334L9.0606 15.1011Z" fill="#FF7000"/>
<path d="M10.2223 15.5657L9.06067 23C11.1948 22.3758 10.0118 17.4403 11.6162 16.0303C11.6162 17.5172 11.401 22.5293 13.0102 23C13.0092 21.5046 13.3123 17.1189 12.3067 15.9903C11.8991 15.5329 10.7878 15.6271 10.2223 15.5657Z" fill="#FF7000"/>
</svg>
