<svg xmlns="http://www.w3.org/2000/svg" width="18" height="18" viewBox="0 0 18 18" fill="none">
  <path fill-rule="evenodd" clip-rule="evenodd" d="M5.87496 6.49984C5.87496 4.77395 7.27407 3.37484 8.99996 3.37484C10.7258 3.37484 12.125 4.77395 12.125 6.49984C12.125 8.22573 10.7258 9.62484 8.99996 9.62484C7.27407 9.62484 5.87496 8.22573 5.87496 6.49984ZM8.99996 4.62484C7.96443 4.62484 7.12496 5.4643 7.12496 6.49984C7.12496 7.53537 7.96443 8.37484 8.99996 8.37484C10.0355 8.37484 10.875 7.53537 10.875 6.49984C10.875 5.4643 10.0355 4.62484 8.99996 4.62484Z" fill="white"/>
  <path fill-rule="evenodd" clip-rule="evenodd" d="M0.041626 8.99984C0.041626 4.05229 4.05241 0.0415039 8.99996 0.0415039C13.9475 0.0415039 17.9583 4.05229 17.9583 8.99984C17.9583 13.9474 13.9475 17.9582 8.99996 17.9582C4.05241 17.9582 0.041626 13.9474 0.041626 8.99984ZM8.99996 1.2915C4.74276 1.2915 1.29163 4.74264 1.29163 8.99984C1.29163 11.1212 2.14852 13.0423 3.53505 14.4361C3.68537 13.6252 3.98074 12.8606 4.5736 12.2458C5.4604 11.3261 6.87843 10.8748 8.99992 10.8748C11.1214 10.8748 12.5394 11.3261 13.4262 12.2458C14.0191 12.8606 14.3145 13.6252 14.4648 14.4362C15.8514 13.0424 16.7083 11.1212 16.7083 8.99984C16.7083 4.74264 13.2572 1.2915 8.99996 1.2915ZM13.328 15.3793C13.2431 14.3694 13.0238 13.6293 12.5264 13.1134C11.9852 12.5521 10.9824 12.1248 8.99992 12.1248C7.01745 12.1248 6.01464 12.5521 5.47341 13.1134C4.97602 13.6292 4.75672 14.3694 4.67181 15.3793C5.90566 16.218 7.39557 16.7082 8.99996 16.7082C10.6043 16.7082 12.0942 16.218 13.328 15.3793Z" fill="white"/>
</svg>