<svg width="16" height="16" viewBox="0 0 16 16" fill="none" xmlns="http://www.w3.org/2000/svg">
<g clip-path="url(#clip0_122_19735)">
<path d="M16 8C16 12.4183 12.4183 16 8 16C3.58175 16 0 12.4183 0 8C0 8.00187 8 0.00090625 8 0C12.4183 0 16 3.58175 16 8Z" fill="#0052B4"/>
<path d="M7.97852 8.00045H7.99996C7.99996 7.99318 7.99996 7.98624 7.99996 7.979C7.99283 7.98617 7.98569 7.99331 7.97852 8.00045Z" fill="#F0F0F0"/>
<path d="M8 4.17439C8 2.76674 8 1.84433 8 0.000488281H7.99865C3.581 0.00120703 0 3.58261 0 8.00046H4.1739V5.65008L6.52428 8.00046H7.97862C7.98578 7.99333 7.9929 7.98621 8.00003 7.97905C8.00003 7.44008 8.00003 6.95918 8.00003 6.5248L5.64962 4.17439H8Z" fill="#F0F0F0"/>
<path d="M4.04782 1.04346C2.7966 1.75593 1.75641 2.79611 1.04395 4.04733V7.99999H3.13091V3.13046V3.13043H8.00048C8.00048 2.47221 8.00048 1.84514 8.00048 1.04346H4.04782Z" fill="#D80027"/>
<path d="M8.00086 7.01609L5.15858 4.17384H4.1748C4.1748 4.17381 4.1748 4.17384 4.1748 4.17384L8.00083 7.99988H8.00086C8.00086 7.99988 8.00086 7.32159 8.00086 7.01609Z" fill="#D80027"/>
<path d="M4.82486 9.39111L5.26392 10.3092L6.25539 10.08L5.81139 10.9957L6.6087 11.628L5.61598 11.8517L5.61877 12.8694L4.82486 12.2327L4.03098 12.8694L4.03377 11.8517L3.04102 11.628L3.83836 10.9957L3.3943 10.08L4.38583 10.3092L4.82486 9.39111Z" fill="#F0F0F0"/>
<path d="M11.9778 11.1304L12.1974 11.5894L12.6931 11.4748L12.4711 11.9327L12.8698 12.2488L12.3734 12.3607L12.3748 12.8695L11.9778 12.5512L11.5809 12.8695L11.5823 12.3607L11.0859 12.2488L11.4846 11.9327L11.2626 11.4748L11.7583 11.5894L11.9778 11.1304Z" fill="#F0F0F0"/>
<path d="M9.93491 6.26123L10.1544 6.72029L10.6502 6.60567L10.4282 7.06351L10.8268 7.37967L10.3305 7.49154L10.3318 8.00036L9.93491 7.68201L9.53797 8.00036L9.53931 7.49154L9.04297 7.37967L9.44162 7.06351L9.21963 6.60567L9.71537 6.72029L9.93491 6.26123Z" fill="#F0F0F0"/>
<path d="M11.9778 3.47852L12.1974 3.93758L12.6931 3.82298L12.4711 4.28083L12.8697 4.59695L12.3734 4.70886L12.3748 5.21767L11.9778 4.89933L11.5809 5.21767L11.5823 4.70886L11.0859 4.59695L11.4846 4.28083L11.2626 3.82298L11.7583 3.93758L11.9778 3.47852Z" fill="#F0F0F0"/>
<path d="M13.7611 5.56494L13.9806 6.024L14.4763 5.90938L14.2543 6.36722L14.653 6.68338L14.1566 6.79528L14.158 7.30407L13.7611 6.98575L13.3641 7.30407L13.3655 6.79528L12.8691 6.68338L13.2678 6.36722L13.0458 5.90938L13.5415 6.024L13.7611 5.56494Z" fill="#F0F0F0"/>
<path d="M12.4864 8.00049L12.659 8.53193H13.2178L12.7657 8.86039L12.9384 9.3918L12.4864 9.06336L12.0343 9.3918L12.2069 8.86039L11.7549 8.53193H12.3137L12.4864 8.00049Z" fill="#F0F0F0"/>
</g>
<defs>
<clipPath id="clip0_122_19735">
<rect width="16" height="16" fill="white"/>
</clipPath>
</defs>
</svg>
