<svg xmlns="http://www.w3.org/2000/svg" width="18" height="18" viewBox="0 0 18 18" fill="none">
  <path d="M9.58571 16.2187C9.29996 16.5749 8.69996 16.5749 8.41421 16.2187L2.41421 8.71865C2.32619 8.60825 2.27109 8.47525 2.25524 8.33495C2.23938 8.19464 2.26342 8.0527 2.32458 7.92544C2.38575 7.79818 2.48156 7.69074 2.60103 7.61547C2.72049 7.5402 2.85876 7.50014 2.99996 7.4999H5.99996V2.2499C5.99996 2.05099 6.07898 1.86022 6.21963 1.71957C6.36028 1.57892 6.55105 1.4999 6.74996 1.4999H11.25C11.4489 1.4999 11.6396 1.57892 11.7803 1.71957C11.9209 1.86022 12 2.05099 12 2.2499V7.4999H15C15.1412 7.50014 15.2794 7.5402 15.3989 7.61547C15.5184 7.69074 15.6142 7.79818 15.6753 7.92544C15.7365 8.0527 15.7605 8.19464 15.7447 8.33495C15.7288 8.47525 15.6737 8.60825 15.5857 8.71865L9.58571 16.2187ZM11.25 8.9999H10.5V2.9999H7.49996V8.9999H4.56071L8.99996 14.5492L13.4392 8.9999H11.25Z" fill="#7B8EC8"/>
</svg>