<svg xmlns="http://www.w3.org/2000/svg" width="18" height="18" viewBox="0 0 18 18" fill="none">
  <path d="M9.58522 16.2187C9.29947 16.5749 8.69947 16.5749 8.41372 16.2187L2.41372 8.71865C2.3257 8.60825 2.2706 8.47525 2.25475 8.33495C2.23889 8.19464 2.26293 8.0527 2.32409 7.92544C2.38526 7.79818 2.48108 7.69074 2.60054 7.61547C2.72 7.5402 2.85827 7.50014 2.99947 7.4999H5.99947V2.2499C5.99947 2.05099 6.07849 1.86022 6.21914 1.71957C6.3598 1.57892 6.55056 1.4999 6.74947 1.4999H11.2495C11.4484 1.4999 11.6392 1.57892 11.7798 1.71957C11.9205 1.86022 11.9995 2.05099 11.9995 2.2499V7.4999H14.9995C15.1407 7.50014 15.2789 7.5402 15.3984 7.61547C15.5179 7.69074 15.6137 7.79818 15.6749 7.92544C15.736 8.0527 15.7601 8.19464 15.7442 8.33495C15.7283 8.47525 15.6732 8.60825 15.5852 8.71865L9.58522 16.2187ZM11.2495 8.9999H10.4995V2.9999H7.49947V8.9999H4.56022L8.99947 14.5492L13.4387 8.9999H11.2495Z" fill="#FF6D6D"/>
  <path d="M10.9161 2.88672H6.87715L6.76799 8.67229L4.03894 8.89062L9.16954 14.8945L13.9727 8.67229H10.9161V2.88672Z" fill="#FF6D6D"/>
</svg>