<svg width="14" height="14" viewBox="0 0 14 14" fill="none" xmlns="http://www.w3.org/2000/svg">
<g clip-path="url(#clip0_328_3403)">
<path d="M6.4165 2.33325H2.33317C2.02375 2.33325 1.72701 2.45617 1.50821 2.67496C1.28942 2.89375 1.1665 3.1905 1.1665 3.49992V11.6666C1.1665 11.976 1.28942 12.2728 1.50821 12.4915C1.72701 12.7103 2.02375 12.8333 2.33317 12.8333H10.4998C10.8093 12.8333 11.106 12.7103 11.3248 12.4915C11.5436 12.2728 11.6665 11.976 11.6665 11.6666V7.58325" stroke="#2688E5" stroke-linecap="round" stroke-linejoin="round"/>
<path d="M10.7915 1.45838C11.0236 1.22632 11.3383 1.09595 11.6665 1.09595C11.9947 1.09595 12.3094 1.22632 12.5415 1.45838C12.7736 1.69045 12.9039 2.0052 12.9039 2.33338C12.9039 2.66157 12.7736 2.97632 12.5415 3.20838L6.99984 8.75005L4.6665 9.33338L5.24984 7.00005L10.7915 1.45838Z" stroke="#2688E5" stroke-linecap="round" stroke-linejoin="round"/>
</g>
<defs>
<clipPath id="clip0_328_3403">
<rect width="14" height="14" fill="white"/>
</clipPath>
</defs>
</svg>
