<svg width="14" height="14" viewBox="0 0 14 14" fill="none" xmlns="http://www.w3.org/2000/svg">
<path d="M13.5362 6.85125C13.0217 5.52022 12.1284 4.36914 10.9667 3.54029C9.80508 2.71143 8.42602 2.24113 7 2.1875C5.57397 2.24113 4.19492 2.71143 3.03327 3.54029C1.87163 4.36914 0.978317 5.52022 0.463747 6.85125C0.428995 6.94737 0.428995 7.05263 0.463747 7.14875C0.978317 8.47978 1.87163 9.63086 3.03327 10.4597C4.19492 11.2886 5.57397 11.7589 7 11.8125C8.42602 11.7589 9.80508 11.2886 10.9667 10.4597C12.1284 9.63086 13.0217 8.47978 13.5362 7.14875C13.571 7.05263 13.571 6.94737 13.5362 6.85125ZM7 10.9375C4.68125 10.9375 2.23125 9.21812 1.34312 7C2.23125 4.78187 4.68125 3.0625 7 3.0625C9.31875 3.0625 11.7687 4.78187 12.6569 7C11.7687 9.21812 9.31875 10.9375 7 10.9375Z" fill="#697C89"/>
<path d="M7 4.375C6.48082 4.375 5.97331 4.52895 5.54163 4.81739C5.10995 5.10583 4.7735 5.5158 4.57482 5.99546C4.37614 6.47511 4.32415 7.00291 4.42544 7.51211C4.52673 8.02131 4.77673 8.48904 5.14385 8.85616C5.51096 9.22327 5.97869 9.47328 6.48789 9.57456C6.99709 9.67585 7.52489 9.62386 8.00454 9.42518C8.4842 9.2265 8.89417 8.89005 9.18261 8.45837C9.47105 8.02669 9.625 7.51918 9.625 7C9.625 6.30381 9.34844 5.63613 8.85616 5.14384C8.36387 4.65156 7.69619 4.375 7 4.375ZM7 8.75C6.65388 8.75 6.31554 8.64736 6.02775 8.45507C5.73997 8.26278 5.51567 7.98947 5.38321 7.6697C5.25076 7.34993 5.2161 6.99806 5.28363 6.65859C5.35115 6.31913 5.51782 6.0073 5.76256 5.76256C6.00731 5.51782 6.31913 5.35115 6.65859 5.28363C6.99806 5.2161 7.34993 5.25076 7.6697 5.38321C7.98947 5.51566 8.26278 5.73997 8.45507 6.02775C8.64737 6.31554 8.75 6.65388 8.75 7C8.75 7.46413 8.56563 7.90925 8.23744 8.23744C7.90925 8.56563 7.46413 8.75 7 8.75Z" fill="#697C89"/>
</svg>
