<svg xmlns="http://www.w3.org/2000/svg" width="18" height="18" viewBox="0 0 18 18" fill="none">
  <g clip-path="url(#clip0_544_17799)">
    <path d="M6.75 12.9375C6.43934 12.9375 6.1875 13.1893 6.1875 13.5C6.1875 13.8107 6.43934 14.0625 6.75 14.0625H11.25C11.5607 14.0625 11.8125 13.8107 11.8125 13.5C11.8125 13.1893 11.5607 12.9375 11.25 12.9375H6.75Z" fill="white"/>
    <path fill-rule="evenodd" clip-rule="evenodd" d="M9 0.9375C8.46891 0.9375 7.9864 1.08961 7.46292 1.34418C6.95689 1.59026 6.37232 1.95307 5.64214 2.40624L4.09221 3.36817C3.40131 3.79696 2.84808 4.1403 2.42168 4.46686C1.98011 4.80502 1.64096 5.14942 1.39598 5.59697C1.15152 6.04359 1.04143 6.51881 0.988642 7.08053C0.937489 7.62491 0.937494 8.29059 0.9375 9.12542V10.3349C0.93749 11.7628 0.937481 12.8899 1.05203 13.7712C1.16953 14.6752 1.41642 15.4051 1.97427 15.9821C2.53469 16.5618 3.24784 16.8207 4.1307 16.9435C4.98637 17.0625 6.07917 17.0625 7.45639 17.0625H10.5436C11.9208 17.0625 13.0136 17.0625 13.8693 16.9435C14.7522 16.8207 15.4653 16.5618 16.0257 15.9821C16.5836 15.4051 16.8305 14.6752 16.948 13.7712C17.0625 12.8899 17.0625 11.7628 17.0625 10.3349V9.12541C17.0625 8.2906 17.0625 7.62489 17.0114 7.08053C16.9586 6.51881 16.8485 6.04359 16.604 5.59697C16.359 5.14942 16.0199 4.80502 15.5783 4.46686C15.1519 4.1403 14.5987 3.79696 13.9078 3.36819L12.3578 2.40624C11.6277 1.95307 11.0431 1.59026 10.5371 1.34418C10.0136 1.08961 9.53109 0.9375 9 0.9375ZM6.20965 3.37809C6.97147 2.90528 7.50712 2.57365 7.95491 2.3559C8.39117 2.14374 8.70014 2.0625 9 2.0625C9.29987 2.0625 9.60883 2.14374 10.0451 2.3559C10.4929 2.57365 11.0285 2.90528 11.7904 3.37809L13.2904 4.30903C14.011 4.75627 14.5169 5.07101 14.8943 5.36002C15.2615 5.64123 15.4728 5.87329 15.6172 6.13714C15.7621 6.40192 15.8467 6.71149 15.8913 7.18578C15.9369 7.67144 15.9375 8.28436 15.9375 9.15294V10.2937C15.9375 11.7719 15.9364 12.8259 15.8324 13.6262C15.7302 14.4122 15.5377 14.8683 15.2169 15.2001C14.8986 15.5293 14.4654 15.7248 13.7143 15.8293C12.9451 15.9362 11.9306 15.9375 10.5 15.9375H7.5C6.06935 15.9375 5.05487 15.9362 4.28567 15.8293C3.53464 15.7248 3.10135 15.5293 2.78309 15.2001C2.46226 14.8683 2.26981 14.4122 2.16764 13.6262C2.06362 12.8259 2.0625 11.7719 2.0625 10.2937V9.15294C2.0625 8.28436 2.06307 7.67144 2.10871 7.18578C2.15328 6.71149 2.23789 6.40192 2.38282 6.13714C2.52724 5.87329 2.73849 5.64123 3.10569 5.36002C3.48307 5.07101 3.98902 4.75627 4.70965 4.30903L6.20965 3.37809Z" fill="white"/>
  </g>
  <defs>
    <clipPath id="clip0_544_17799">
      <rect width="18" height="18" fill="white"/>
    </clipPath>
  </defs>
</svg>