<svg width="14" height="14" viewBox="0 0 14 14" fill="none" xmlns="http://www.w3.org/2000/svg">
<path d="M8.75 5.83333L8.17483 5.73767C8.16095 5.8212 8.16541 5.90675 8.18792 5.98838C8.21042 6.07001 8.25043 6.14576 8.30516 6.21037C8.35989 6.27498 8.42803 6.32691 8.50485 6.36253C8.58167 6.39815 8.66532 6.41663 8.75 6.41667V5.83333ZM2.33333 5.83333V5.25C2.17862 5.25 2.03025 5.31146 1.92085 5.42085C1.81146 5.53025 1.75 5.67862 1.75 5.83333H2.33333ZM3.5 12.25H10.1267V11.0833H3.5V12.25ZM10.8267 5.25H8.75V6.41667H10.8267V5.25ZM9.32575 5.929L9.79533 3.10858L8.645 2.91667L8.17483 5.73767L9.32575 5.929ZM8.645 1.75H8.52017V2.91667H8.645V1.75ZM6.57825 2.78892L5.11117 4.99042L6.08183 5.63792L7.5495 3.43642L6.57825 2.78892ZM4.62583 5.25H2.33333V6.41667H4.62583V5.25ZM1.75 5.83333V10.5H2.91667V5.83333H1.75ZM11.8428 10.843L12.5428 7.343L11.3995 7.11433L10.6995 10.6143L11.8428 10.843ZM5.11117 4.99042C5.05788 5.07028 4.9857 5.13576 4.90104 5.18105C4.81638 5.22633 4.72185 5.25001 4.62583 5.25V6.41667C4.91392 6.41665 5.19755 6.3455 5.45154 6.20955C5.70554 6.0736 5.92204 5.87704 6.08183 5.63733L5.11117 4.98983V4.99042ZM9.79533 3.10858C9.8232 2.94148 9.81434 2.77031 9.76937 2.60698C9.7244 2.44365 9.6444 2.29207 9.53493 2.16278C9.42546 2.03349 9.28914 1.92959 9.13546 1.85831C8.98178 1.78702 8.81441 1.75006 8.645 1.75V2.91667L9.79533 3.10858ZM10.8267 6.41667C10.913 6.41663 10.9982 6.43576 11.0763 6.47266C11.1543 6.50956 11.2232 6.56332 11.2779 6.63006C11.3327 6.6968 11.3719 6.77485 11.3928 6.8586C11.4138 6.94234 11.4164 7.02969 11.3995 7.11433L12.5428 7.343C12.5936 7.08916 12.5874 6.82723 12.5247 6.57608C12.4619 6.32493 12.3443 6.09082 12.1802 5.89062C12.0161 5.69042 11.8096 5.52912 11.5757 5.41834C11.3417 5.30757 11.0861 5.25007 10.8273 5.25V6.41667H10.8267ZM10.1267 12.25C10.5313 12.25 10.9234 12.1098 11.2363 11.8533C11.5492 11.5968 11.7635 11.2398 11.8428 10.843L10.6995 10.6143C10.673 10.7467 10.6015 10.8658 10.497 10.9514C10.3926 11.0369 10.2617 11.0835 10.1267 11.0833V12.25ZM8.52017 1.75C8.13597 1.74991 7.75769 1.84469 7.41892 2.02593C7.08016 2.20717 6.79139 2.46926 6.57825 2.78892L7.5495 3.43642C7.65601 3.27657 7.80033 3.1455 7.96966 3.05483C8.13899 2.96416 8.32809 2.9167 8.52017 2.91667V1.75ZM3.5 11.0833C3.34529 11.0833 3.19692 11.0219 3.08752 10.9125C2.97812 10.8031 2.91667 10.6547 2.91667 10.5H1.75C1.75 10.9641 1.93437 11.4092 2.26256 11.7374C2.59075 12.0656 3.03587 12.25 3.5 12.25V11.0833Z" fill="#697C89"/>
<path d="M4.66669 5.83325V11.6666" stroke="#697C89"/>
</svg>
