<svg width="20" height="20" viewBox="0 0 20 20" fill="none" xmlns="http://www.w3.org/2000/svg">
<path d="M8.39111 10.8045C8.73662 11.2664 9.17743 11.6486 9.68364 11.9251C10.1898 12.2017 10.7496 12.3662 11.325 12.4074C11.9003 12.4486 12.4778 12.3656 13.0183 12.164C13.5587 11.9623 14.0495 11.6469 14.4573 11.2389L16.8709 8.82532C17.6037 8.06663 18.0091 7.0505 18 5.99577C17.9908 4.94104 17.5677 3.9321 16.8219 3.18627C16.0761 2.44043 15.0671 2.01737 14.0124 2.00821C12.9577 1.99904 11.9415 2.40451 11.1828 3.13727L9.79905 4.51302" stroke="#47525A" stroke-width="1.2" stroke-linecap="round" stroke-linejoin="round"/>
<path d="M11.609 9.19545C11.2635 8.73355 10.8227 8.35135 10.3165 8.07478C9.81026 7.79822 9.2505 7.63376 8.67514 7.59255C8.09978 7.55135 7.52229 7.63436 6.98184 7.83597C6.44139 8.03757 5.95062 8.35305 5.54281 8.761L3.12921 11.1746C2.39645 11.9333 1.99099 12.9494 2.00015 14.0042C2.00932 15.0589 2.43238 16.0678 3.17821 16.8137C3.92405 17.5595 4.93298 17.9825 5.98771 17.9917C7.04244 18.0009 8.05858 17.5954 8.81726 16.8627L10.193 15.4869" stroke="#47525A" stroke-width="1.2" stroke-linecap="round" stroke-linejoin="round"/>
</svg>
