<svg width="14" height="14" viewBox="0 0 14 14" fill="none" xmlns="http://www.w3.org/2000/svg">
<path d="M7.25 11.5C8.09057 11.5 8.91226 11.2507 9.61117 10.7837C10.3101 10.3168 10.8548 9.65299 11.1765 8.87641C11.4982 8.09982 11.5823 7.24529 11.4183 6.42087C11.2543 5.59645 10.8496 4.83917 10.2552 4.2448C9.66083 3.65042 8.90355 3.24565 8.07913 3.08166C7.25471 2.91768 6.40018 3.00184 5.6236 3.32351C4.84701 3.64519 4.18325 4.18992 3.71625 4.88883C3.24926 5.58774 3 6.40943 3 7.25C3 7.95267 3.17 8.6152 3.47222 9.19886L3 11.5L5.30114 11.0278C5.88481 11.33 6.54781 11.5 7.25 11.5Z" stroke="#697C89" stroke-linecap="round" stroke-linejoin="round"/>
</svg>
