<svg width="18" height="18" viewBox="0 0 18 18" fill="none" xmlns="http://www.w3.org/2000/svg">
<g clip-path="url(#clip0_122_20061)">
<path fill-rule="evenodd" clip-rule="evenodd" d="M9.53026 11.7803C9.38962 11.9209 9.19889 11.9999 9.00001 11.9999C8.80114 11.9999 8.61041 11.9209 8.46976 11.7803L4.22701 7.53751C4.15538 7.46833 4.09824 7.38557 4.05894 7.29407C4.01963 7.20256 3.99894 7.10415 3.99808 7.00456C3.99721 6.90498 4.01619 6.80622 4.0539 6.71405C4.09161 6.62188 4.1473 6.53814 4.21772 6.46772C4.28814 6.3973 4.37188 6.34161 4.46405 6.3039C4.55622 6.26619 4.65498 6.24721 4.75456 6.24808C4.85415 6.24894 4.95256 6.26963 5.04407 6.30894C5.13557 6.34824 5.21833 6.40538 5.28751 6.47701L9.00001 10.1895L12.7125 6.47701C12.854 6.34039 13.0434 6.2648 13.2401 6.26651C13.4367 6.26822 13.6248 6.34709 13.7639 6.48615C13.9029 6.6252 13.9818 6.81331 13.9835 7.00996C13.9852 7.20661 13.9096 7.39606 13.773 7.53751L9.53026 11.7803Z" fill="#697C89"/>
</g>
<defs>
<clipPath id="clip0_122_20061">
<rect width="18" height="18" fill="white"/>
</clipPath>
</defs>
</svg>
