<svg xmlns="http://www.w3.org/2000/svg" width="20" height="20" viewBox="0 0 20 20" fill="none">
  <path d="M9.99996 6.45817C9.48219 6.45817 9.06246 6.8779 9.06246 7.39567C9.06246 7.74085 8.78264 8.02067 8.43746 8.02067C8.09228 8.02067 7.81246 7.74085 7.81246 7.39567C7.81246 6.18755 8.79184 5.20817 9.99996 5.20817C11.2081 5.20817 12.1875 6.18755 12.1875 7.39567C12.1875 8.19845 11.7547 8.89948 11.1127 9.27931C10.9487 9.37631 10.8134 9.48223 10.7252 9.58614C10.6396 9.68703 10.625 9.75284 10.625 9.7915V10.8332C10.625 11.1783 10.3451 11.4582 9.99996 11.4582C9.65478 11.4582 9.37496 11.1783 9.37496 10.8332V9.7915C9.37496 9.36993 9.55952 9.02787 9.77212 8.77735C9.98215 8.52986 10.244 8.34084 10.4762 8.20349C10.7537 8.03933 10.9375 7.73863 10.9375 7.39567C10.9375 6.8779 10.5177 6.45817 9.99996 6.45817Z" fill="white"/>
  <path d="M9.99996 14.1665C10.4602 14.1665 10.8333 13.7934 10.8333 13.3332C10.8333 12.8729 10.4602 12.4998 9.99996 12.4998C9.53972 12.4998 9.16663 12.8729 9.16663 13.3332C9.16663 13.7934 9.53972 14.1665 9.99996 14.1665Z" fill="white"/>
  <path fill-rule="evenodd" clip-rule="evenodd" d="M9.95214 1.0415H10.0478C11.9714 1.04149 13.479 1.04149 14.6552 1.19963C15.8592 1.36149 16.8092 1.69928 17.5548 2.44495C18.3005 3.19063 18.6383 4.14065 18.8002 5.34459C18.9583 6.52083 18.9583 8.02836 18.9583 9.95203V10.0476C18.9583 11.9713 18.9583 13.4788 18.8002 14.6551C18.6383 15.859 18.3005 16.8091 17.5548 17.5547C16.8092 18.3004 15.8592 18.6382 14.6552 18.8C13.479 18.9582 11.9714 18.9582 10.0478 18.9582H9.95215C8.02849 18.9582 6.52095 18.9582 5.34471 18.8C4.14077 18.6382 3.19075 18.3004 2.44507 17.5547C1.6994 16.8091 1.36161 15.859 1.19975 14.6551C1.04161 13.4788 1.04162 11.9713 1.04163 10.0477V9.95202C1.04162 8.02837 1.04161 6.52083 1.19975 5.34459C1.36161 4.14065 1.6994 3.19063 2.44507 2.44495C3.19075 1.69928 4.14077 1.36149 5.34471 1.19963C6.52095 1.04149 8.02849 1.04149 9.95214 1.0415ZM5.51127 2.43848C4.44594 2.58171 3.80367 2.85412 3.32896 3.32883C2.85424 3.80355 2.58183 4.44582 2.4386 5.51115C2.29295 6.59447 2.29163 8.01798 2.29163 9.99984C2.29163 11.9817 2.29295 13.4052 2.4386 14.4885C2.58183 15.5539 2.85424 16.1961 3.32896 16.6708C3.80367 17.1456 4.44594 17.418 5.51127 17.5612C6.59459 17.7068 8.01811 17.7082 9.99996 17.7082C11.9818 17.7082 13.4053 17.7068 14.4886 17.5612C15.554 17.418 16.1962 17.1456 16.671 16.6708C17.1457 16.1961 17.4181 15.5539 17.5613 14.4885C17.707 13.4052 17.7083 11.9817 17.7083 9.99984C17.7083 8.01798 17.707 6.59447 17.5613 5.51115C17.4181 4.44582 17.1457 3.80355 16.671 3.32883C16.1962 2.85412 15.554 2.58171 14.4886 2.43848C13.4053 2.29283 11.9818 2.2915 9.99996 2.2915C8.01811 2.2915 6.59459 2.29283 5.51127 2.43848Z" fill="white"/>
</svg>