<svg xmlns="http://www.w3.org/2000/svg" width="17" height="18" viewBox="0 0 17 18" fill="none">
  <path fill-rule="evenodd" clip-rule="evenodd" d="M4.0417 3.99984C4.0417 1.81371 5.8139 0.0415039 8.00003 0.0415039C10.1862 0.0415039 11.9584 1.81371 11.9584 3.99984C11.9584 6.18596 10.1862 7.95817 8.00003 7.95817C5.8139 7.95817 4.0417 6.18596 4.0417 3.99984ZM8.00003 1.2915C6.50426 1.2915 5.2917 2.50407 5.2917 3.99984C5.2917 5.49561 6.50426 6.70817 8.00003 6.70817C9.4958 6.70817 10.7084 5.49561 10.7084 3.99984C10.7084 2.50407 9.4958 1.2915 8.00003 1.2915Z" fill="white"/>
  <path d="M13 10.5971C13.3452 10.5971 13.625 10.8769 13.625 11.2221V11.7082H14.111C14.4562 11.7082 14.736 11.988 14.736 12.3332C14.736 12.6783 14.4562 12.9582 14.111 12.9582H13.625V13.4443C13.625 13.7895 13.3452 14.0693 13 14.0693C12.6549 14.0693 12.375 13.7895 12.375 13.4443V12.9582H11.8888C11.5436 12.9582 11.2638 12.6783 11.2638 12.3332C11.2638 11.988 11.5436 11.7082 11.8888 11.7082H12.375V11.2221C12.375 10.8769 12.6549 10.5971 13 10.5971Z" fill="white"/>
  <path fill-rule="evenodd" clip-rule="evenodd" d="M10.3122 9.42726C9.58497 9.28488 8.80708 9.20817 8.00003 9.20817C6.07207 9.20817 4.2958 9.64641 2.97957 10.3868C1.68293 11.1161 0.708364 12.2216 0.708364 13.5832L0.708309 13.6681C0.707367 14.6363 0.706185 15.8515 1.77204 16.7195C2.2966 17.1466 3.03043 17.4504 4.02187 17.6511C5.01608 17.8523 6.31188 17.9582 8.00003 17.9582C10.3901 17.9582 12.0083 17.7466 13.0997 17.3403C14.0821 16.9746 14.6644 16.4387 14.9753 15.7642C16.1606 15.0803 16.9584 13.7999 16.9584 12.3332C16.9584 10.147 15.1862 8.37484 13 8.37484C11.9625 8.37484 11.0181 8.77405 10.3122 9.42726ZM3.5924 11.4763C2.47618 12.1041 1.95836 12.8737 1.95836 13.5832C1.95836 14.673 1.99196 15.2865 2.56135 15.7502C2.87013 16.0016 3.3863 16.2471 4.26986 16.4259C5.15065 16.6042 6.35484 16.7082 8.00003 16.7082C10.1483 16.7082 11.5334 16.5303 12.4257 16.2501C10.5118 15.972 9.0417 14.3242 9.0417 12.3332C9.0417 11.6933 9.19353 11.0889 9.46312 10.554C8.995 10.4915 8.50507 10.4582 8.00003 10.4582C6.24609 10.4582 4.68903 10.8594 3.5924 11.4763ZM10.2917 12.3332C10.2917 10.8374 11.5043 9.62484 13 9.62484C14.4958 9.62484 15.7084 10.8374 15.7084 12.3332C15.7084 13.8289 14.4958 15.0415 13 15.0415C11.5043 15.0415 10.2917 13.8289 10.2917 12.3332Z" fill="white"/>
</svg>