<svg xmlns="http://www.w3.org/2000/svg" width="12" height="12" viewBox="0 0 12 12" fill="none">
  <path d="M7.67578 1.99712C7.57031 2.03696 7.5 2.13774 7.5 2.25024C7.5 2.36274 7.57031 2.46353 7.67578 2.50337L9 3.00024L9.49688 4.32446C9.53672 4.42993 9.6375 4.50024 9.75 4.50024C9.8625 4.50024 9.96328 4.42993 10.0031 4.32446L10.5 3.00024L11.8242 2.50337C11.9297 2.46353 12 2.36274 12 2.25024C12 2.13774 11.9297 2.03696 11.8242 1.99712L10.5 1.50024L10.0031 0.176025C9.96328 0.0705566 9.8625 0.000244141 9.75 0.000244141C9.6375 0.000244141 9.53672 0.0705566 9.49688 0.176025L9 1.50024L7.67578 1.99712ZM4.80703 1.71821C4.74609 1.58462 4.6125 1.50024 4.46719 1.50024C4.32188 1.50024 4.18828 1.58462 4.12734 1.71821L2.88984 4.39009L0.217969 5.62524C0.084375 5.68618 0 5.81978 0 5.96743C0 6.11509 0.084375 6.24634 0.217969 6.30728L2.89219 7.54243L4.125 10.2143C4.18594 10.3479 4.31953 10.4323 4.46484 10.4323C4.61016 10.4323 4.74375 10.3479 4.80469 10.2143L6.03984 7.54009L8.71406 6.30493C8.84766 6.24399 8.93203 6.1104 8.93203 5.96509C8.93203 5.81978 8.84766 5.68618 8.71406 5.62524L6.04219 4.39243L4.80703 1.71821ZM9 9.00024L7.67578 9.49712C7.57031 9.53696 7.5 9.63774 7.5 9.75024C7.5 9.86274 7.57031 9.96352 7.67578 10.0034L9 10.5002L9.49688 11.8245C9.53672 11.9299 9.6375 12.0002 9.75 12.0002C9.8625 12.0002 9.96328 11.9299 10.0031 11.8245L10.5 10.5002L11.8242 10.0034C11.9297 9.96352 12 9.86274 12 9.75024C12 9.63774 11.9297 9.53696 11.8242 9.49712L10.5 9.00024L10.0031 7.67603C9.96328 7.57056 9.8625 7.50024 9.75 7.50024C9.6375 7.50024 9.53672 7.57056 9.49688 7.67603L9 9.00024Z" fill="url(#paint0_linear_705_2529)"/>
  <defs>
    <linearGradient id="paint0_linear_705_2529" x1="-1.76879" y1="0.000246865" x2="12.571" y2="0.807006" gradientUnits="userSpaceOnUse">
      <stop stop-color="#FF7000"/>
      <stop offset="1" stop-color="#E2995F"/>
    </linearGradient>
  </defs>
</svg>