<svg xmlns="http://www.w3.org/2000/svg" width="20" height="20" viewBox="0 0 20 20" fill="none">
  <path d="M6.31818 2.43182C6.31818 1.64145 6.95964 1 7.75 1H12.25C13.0404 1 13.6818 1.64145 13.6818 2.43182V4.27273H17.5682C18.3585 4.27273 19 4.91418 19 5.70455V17.5682C19 17.9479 18.8491 18.3121 18.5806 18.5806C18.3121 18.8491 17.9479 19 17.5682 19H2.43182C2.05208 19 1.68789 18.8491 1.41937 18.5806C1.15085 18.3121 1 17.9479 1 17.5682V5.70455C1 4.91418 1.64145 4.27273 2.43182 4.27273H6.31818V2.43182ZM2.22727 10.81V17.5682C2.22727 17.6811 2.31891 17.7727 2.43182 17.7727H17.5682C17.6224 17.7727 17.6745 17.7512 17.7128 17.7128C17.7512 17.6745 17.7727 17.6224 17.7727 17.5682V10.81C17.1449 11.3444 16.3472 11.6374 15.5227 11.6364H4.47727C3.65285 11.6374 2.85508 11.3444 2.22727 10.81ZM17.7727 8.15909V5.70455C17.7727 5.6503 17.7512 5.59827 17.7128 5.55991C17.6745 5.52155 17.6224 5.5 17.5682 5.5H2.43182C2.37757 5.5 2.32554 5.52155 2.28718 5.55991C2.24882 5.59827 2.22727 5.6503 2.22727 5.70455V8.15909C2.22727 8.75583 2.46433 9.32812 2.88628 9.75008C3.30824 10.172 3.88054 10.4091 4.47727 10.4091H15.5227C16.1195 10.4091 16.6918 10.172 17.1137 9.75008C17.5357 9.32812 17.7727 8.75583 17.7727 8.15909ZM12.4545 2.43182C12.4545 2.37757 12.433 2.32554 12.3946 2.28718C12.3563 2.24882 12.3042 2.22727 12.25 2.22727H7.75C7.69575 2.22727 7.64372 2.24882 7.60536 2.28718C7.567 2.32554 7.54545 2.37757 7.54545 2.43182V4.27273H12.4545V2.43182Z" fill="white"/>
</svg>