<svg xmlns="http://www.w3.org/2000/svg" width="18" height="18" viewBox="0 0 18 18" fill="none">
  <path d="M9.58522 1.78135C9.29947 1.4251 8.69947 1.4251 8.41372 1.78135L2.41372 9.28135C2.3257 9.39175 2.2706 9.52475 2.25475 9.66505C2.23889 9.80536 2.26293 9.9473 2.32409 10.0746C2.38526 10.2018 2.48108 10.3093 2.60054 10.3845C2.72 10.4598 2.85827 10.4999 2.99947 10.5001H5.99947V15.7501C5.99947 15.949 6.07849 16.1398 6.21914 16.2804C6.3598 16.4211 6.55056 16.5001 6.74947 16.5001H11.2495C11.4484 16.5001 11.6392 16.4211 11.7798 16.2804C11.9205 16.1398 11.9995 15.949 11.9995 15.7501V10.5001H14.9995C15.1407 10.4999 15.2789 10.4598 15.3984 10.3845C15.5179 10.3093 15.6137 10.2018 15.6749 10.0746C15.736 9.9473 15.7601 9.80536 15.7442 9.66505C15.7283 9.52475 15.6732 9.39175 15.5852 9.28135L9.58522 1.78135ZM11.2495 9.0001H10.4995V15.0001H7.49947V9.0001H4.56022L8.99947 3.45085L13.4387 9.0001H11.2495Z" fill="#6DFF8D"/>
  <path d="M10.9161 15.1133H6.87715L6.76799 9.32771L4.03894 9.10938L9.16954 3.10548L13.9727 9.32771H10.9161V15.1133Z" fill="#6DFF8D"/>
</svg>