<svg xmlns="http://www.w3.org/2000/svg" width="18" height="18" viewBox="0 0 18 18" fill="none">
  <path d="M9.58571 1.78135C9.29996 1.4251 8.69996 1.4251 8.41421 1.78135L2.41421 9.28135C2.32619 9.39175 2.27109 9.52475 2.25524 9.66505C2.23938 9.80536 2.26342 9.9473 2.32458 10.0746C2.38575 10.2018 2.48156 10.3093 2.60103 10.3845C2.72049 10.4598 2.85876 10.4999 2.99996 10.5001H5.99996V15.7501C5.99996 15.949 6.07898 16.1398 6.21963 16.2804C6.36028 16.4211 6.55105 16.5001 6.74996 16.5001H11.25C11.4489 16.5001 11.6396 16.4211 11.7803 16.2804C11.9209 16.1398 12 15.949 12 15.7501V10.5001H15C15.1412 10.4999 15.2794 10.4598 15.3989 10.3845C15.5184 10.3093 15.6142 10.2018 15.6753 10.0746C15.7365 9.9473 15.7605 9.80536 15.7447 9.66505C15.7288 9.52475 15.6737 9.39175 15.5857 9.28135L9.58571 1.78135ZM11.25 9.0001H10.5V15.0001H7.49996V9.0001H4.56071L8.99996 3.45085L13.4392 9.0001H11.25Z" fill="#7B8EC8"/>
</svg>