<svg xmlns="http://www.w3.org/2000/svg" width="20" height="20" viewBox="0 0 20 20" fill="none">
  <g clip-path="url(#clip0_544_17803)">
    <path d="M3.84615 3.07692C3.84615 2.60089 4.03526 2.14436 4.37186 1.80776C4.70846 1.47115 5.165 1.28205 5.64102 1.28205C6.11705 1.28205 6.57359 1.47115 6.91019 1.80776C7.24679 2.14436 7.4359 2.60089 7.4359 3.07692C7.4359 3.55295 7.24679 4.00949 6.91019 4.34609C6.57359 4.68269 6.11705 4.8718 5.64102 4.8718C5.165 4.8718 4.70846 4.68269 4.37186 4.34609C4.03526 4.00949 3.84615 3.55295 3.84615 3.07692ZM5.64102 0C5.23696 -6.02107e-09 4.83685 0.0795869 4.46354 0.234217C4.09023 0.388847 3.75103 0.615491 3.46531 0.90121C3.17959 1.18693 2.95295 1.52613 2.79832 1.89944C2.64369 2.27275 2.5641 2.67286 2.5641 3.07692C2.5641 3.48099 2.64369 3.8811 2.79832 4.25441C2.95295 4.62772 3.17959 4.96692 3.46531 5.25264C3.75103 5.53836 4.09023 5.765 4.46354 5.91963C4.83685 6.07426 5.23696 6.15385 5.64102 6.15385C6.45708 6.15385 7.2397 5.82967 7.81674 5.25264C8.39377 4.6756 8.71795 3.89297 8.71795 3.07692C8.71795 2.26087 8.39377 1.47825 7.81674 0.90121C7.2397 0.324175 6.45708 1.21601e-08 5.64102 0ZM13.0769 3.07692C13.0769 2.60089 13.266 2.14436 13.6026 1.80776C13.9392 1.47115 14.3958 1.28205 14.8718 1.28205C15.3478 1.28205 15.8044 1.47115 16.141 1.80776C16.4776 2.14436 16.6667 2.60089 16.6667 3.07692C16.6667 3.55295 16.4776 4.00949 16.141 4.34609C15.8044 4.68269 15.3478 4.8718 14.8718 4.8718C14.3958 4.8718 13.9392 4.68269 13.6026 4.34609C13.266 4.00949 13.0769 3.55295 13.0769 3.07692ZM14.8718 0C14.4677 -6.02107e-09 14.0676 0.0795869 13.6943 0.234217C13.321 0.388847 12.9818 0.615491 12.6961 0.90121C12.4104 1.18693 12.1837 1.52613 12.0291 1.89944C11.8745 2.27275 11.7949 2.67286 11.7949 3.07692C11.7949 3.48099 11.8745 3.8811 12.0291 4.25441C12.1837 4.62772 12.4104 4.96692 12.6961 5.25264C12.9818 5.53836 13.321 5.765 13.6943 5.91963C14.0676 6.07426 14.4677 6.15385 14.8718 6.15385C15.6878 6.15385 16.4705 5.82967 17.0475 5.25264C17.6245 4.6756 17.9487 3.89297 17.9487 3.07692C17.9487 2.26087 17.6245 1.47825 17.0475 0.90121C16.4705 0.324175 15.6878 1.21601e-08 14.8718 0ZM0 8.94667C0 8.7146 0.0457094 8.4848 0.134518 8.2704C0.223327 8.05599 0.353497 7.86118 0.517595 7.69708C0.681693 7.53298 0.876505 7.40282 1.09091 7.31401C1.30531 7.2252 1.53511 7.17949 1.76718 7.17949H6.70256C6.47249 7.57692 6.31125 8.01037 6.22564 8.46154H1.76718C1.70347 8.46154 1.64039 8.47409 1.58153 8.49847C1.52267 8.52285 1.46919 8.55858 1.42414 8.60363C1.37909 8.64868 1.34336 8.70216 1.31898 8.76102C1.2946 8.81987 1.28205 8.88296 1.28205 8.94667V9.16667C1.28205 9.30513 1.28359 10.1579 1.80462 10.9641C2.2641 11.6759 3.20103 12.4615 5.23231 12.5549C4.7032 12.7948 4.26167 13.1932 3.96872 13.6949C2.31641 13.3708 1.31231 12.5651 0.727692 11.66C6.1133e-08 10.5333 0 9.36923 0 9.16769V8.94718V8.94667ZM15.2805 12.5549C15.8096 12.7948 16.2511 13.1932 16.5441 13.6949C18.1964 13.3708 19.2005 12.5651 19.7851 11.66C20.5128 10.5333 20.5128 9.36923 20.5128 9.16769V8.94718C20.5129 8.71507 20.4672 8.48522 20.3784 8.27075C20.2897 8.05629 20.1595 7.86142 19.9954 7.69726C19.8313 7.53311 19.6365 7.4029 19.422 7.31406C19.2076 7.22521 18.9778 7.17949 18.7456 7.17949H13.8103C14.0359 7.57077 14.2 8.00256 14.2872 8.46154H18.7456C19.0133 8.46154 19.2308 8.67897 19.2308 8.94667V9.16667C19.2308 9.30513 19.2292 10.1579 18.7082 10.9641C18.2487 11.6759 17.3118 12.4615 15.2805 12.5549ZM10.2564 7.4359C9.78038 7.4359 9.32385 7.625 8.98724 7.9616C8.65064 8.29821 8.46154 8.75474 8.46154 9.23077C8.46154 9.7068 8.65064 10.1633 8.98724 10.4999C9.32385 10.8365 9.78038 11.0256 10.2564 11.0256C10.7324 11.0256 11.189 10.8365 11.5256 10.4999C11.8622 10.1633 12.0513 9.7068 12.0513 9.23077C12.0513 8.75474 11.8622 8.29821 11.5256 7.9616C11.189 7.625 10.7324 7.4359 10.2564 7.4359ZM7.17949 9.23077C7.17949 8.41472 7.50366 7.63209 8.0807 7.05506C8.65773 6.47802 9.44036 6.15385 10.2564 6.15385C11.0725 6.15385 11.8551 6.47802 12.4321 7.05506C13.0092 7.63209 13.3333 8.41472 13.3333 9.23077C13.3333 10.0468 13.0092 10.8294 12.4321 11.4065C11.8551 11.9835 11.0725 12.3077 10.2564 12.3077C9.44036 12.3077 8.65773 11.9835 8.0807 11.4065C7.50366 10.8294 7.17949 10.0468 7.17949 9.23077ZM4.61538 15.1005C4.61538 14.6318 4.80157 14.1823 5.13298 13.8509C5.46439 13.5195 5.91388 13.3333 6.38256 13.3333H14.1303C14.5989 13.3333 15.0484 13.5195 15.3798 13.8509C15.7112 14.1823 15.8974 14.6318 15.8974 15.1005V15.3215C15.8974 15.5236 15.8974 16.6872 15.1697 17.8138C14.4092 18.9913 12.94 20 10.2564 20C7.57282 20 6.10359 18.9913 5.34308 17.8138C4.61538 16.6872 4.61538 15.5231 4.61538 15.3215V15.1005ZM6.38256 14.6154C6.2539 14.6154 6.1305 14.6665 6.03953 14.7575C5.94855 14.8485 5.89743 14.9718 5.89743 15.1005V15.3205C5.89743 15.459 5.89897 16.3118 6.42 17.118C6.90923 17.8759 7.94 18.7179 10.2564 18.7179C12.5728 18.7179 13.6036 17.8759 14.0928 17.118C14.6138 16.3118 14.6154 15.459 14.6154 15.3205V15.1005C14.6154 14.9718 14.5643 14.8485 14.4733 14.7575C14.3823 14.6665 14.2589 14.6154 14.1303 14.6154H6.38256Z" fill="white"/>
  </g>
  <defs>
    <clipPath id="clip0_544_17803">
      <rect width="20" height="20" fill="white"/>
    </clipPath>
  </defs>
</svg>